name analog
datacolumns 19
datarows 41
range 0.4305 0.4505
endheader
time	ground_force_vx	ground_force_vy	ground_force_vz	ground_force_px	ground_force_py	ground_force_pz	l_ground_force_vx	l_ground_force_vy	l_ground_force_vz	l_ground_force_px	l_ground_force_py	l_ground_force_pz	ground_torque_x	ground_torque_y	ground_torque_z	l_ground_torque_x	l_ground_torque_y	l_ground_torque_z
0.4305	-0.0	-0.0	-0.0	-0.0	-0.0	-0.0	-3.1365885734558105	-4.670525550842285	-452.5837097167969	-0.0	-0.0	-0.0	-0.0	-0.0	-0.0	154940.046875	-32925.79296875	-2140.995361328125
0.431	-0.0	-0.0	-0.0	-0.0	-0.0	-0.0	-2.990124464035034	-4.67067813873291	-453.2192993164063	-0.0	-0.0	-0.0	-0.0	-0.0	-0.0	155080.109375	-33194.73828125	-2050.131591796875
0.4315	-0.0	-0.0	-0.0	-0.0	-0.0	-0.0	-2.7346208095550537	-4.67081880569458	-455.9920043945313	-0.0	-0.0	-0.0	-0.0	-0.0	-0.0	155656.859375	-33426.25390625	-1873.683837890625
0.432	-0.0	-0.0	-0.0	-0.0	-0.0	-0.0	-1.5080833435058594	-4.587672710418701	-458.49603271484375	-0.0	-0.0	-0.0	-0.0	-0.0	-0.0	156523.625	-33716.8125	-1726.147705078125
0.4325	-0.0	-0.0	-0.0	-0.0	-0.0	-0.0	-1.0695295333862305	-4.2593536376953125	-462.2767333984375	-0.0	-0.0	-0.0	-0.0	-0.0	-0.0	157824.609375	-34318.2265625	-1628.3487548828125
0.433	-0.0	-0.0	-0.0	-0.0	-0.0	-0.0	-1.0300190448760986	-4.332671165466309	-467.455810546875	-0.0	-0.0	-0.0	-0.0	-0.0	-0.0	159225.9375	-34912.66796875	-1691.03466796875
0.4335	-0.0	-0.0	-0.0	-0.0	-0.0	-0.0	-0.966080129146576	-3.704662799835205	-471.9954833984375	-0.0	-0.0	-0.0	-0.0	-0.0	-0.0	160892.5625	-35625.734375	-1809.50634765625
0.434	-0.0	-0.0	-0.0	-0.0	-0.0	-0.0	-1.7742156982421875	-3.160496473312378	-476.5731201171875	-0.0	-0.0	-0.0	-0.0	-0.0	-0.0	162277.125	-35866.1796875	-2078.54736328125
0.4345	-0.0	-0.0	-0.0	-0.0	-0.0	-0.0	-2.306480407714844	-2.25867772102356	-479.4410705566406	-0.0	-0.0	-0.0	-0.0	-0.0	-0.0	163986.8125	-36366.5078125	-2462.747314453125
0.435	-0.0	-0.0	-0.0	-0.0	-0.0	-0.0	-2.8201260566711426	-1.752530813217163	-482.2150573730469	-0.0	-0.0	-0.0	-0.0	-0.0	-0.0	165343.78125	-36571.71875	-2647.219970703125
0.4355	-0.0	-0.0	-0.0	-0.0	-0.0	-0.0	-2.315649032592773	-1.4268395900726318	-486.01904296875	-0.0	-0.0	-0.0	-0.0	-0.0	-0.0	166318.8125	-37274.9609375	-2729.568115234375
0.436	-0.0	-0.0	-0.0	-0.0	-0.0	-0.0	-2.2222933769226074	-1.5104763507843018	-488.1139526367188	-0.0	-0.0	-0.0	-0.0	-0.0	-0.0	167193.375	-37639.296875	-2699.87890625
0.4365	-0.0	-0.0	-0.0	-0.0	-0.0	-0.0	-1.947190761566162	-1.5191768407821655	-491.552978515625	-0.0	-0.0	-0.0	-0.0	-0.0	-0.0	168315.21875	-38143.796875	-2616.666748046875
0.437	-0.0	-0.0	-0.0	-0.0	-0.0	-0.0	-1.698634147644043	-1.943077087402344	-492.0235595703125	-0.0	-0.0	-0.0	-0.0	-0.0	-0.0	169263.21875	-38496.19140625	-2638.874267578125
0.4375	-0.0	-0.0	-0.0	-0.0	-0.0	-0.0	-1.6097420454025269	-2.363200426101685	-495.0630187988281	-0.0	-0.0	-0.0	-0.0	-0.0	-0.0	169958.4375	-38999.65625	-2610.7373046875
0.438	-0.0	-0.0	-0.0	-0.0	-0.0	-0.0	-1.0730069875717163	-2.317464828491211	-496.0944213867188	-0.0	-0.0	-0.0	-0.0	-0.0	-0.0	170660.578125	-39432.26171875	-2495.966064453125
0.4385	-0.0	-0.0	-0.0	-0.0	-0.0	-0.0	-0.5364428162574768	-2.7379722595214844	-496.7770080566406	-0.0	-0.0	-0.0	-0.0	-0.0	-0.0	170879.40625	-39696.0234375	-2372.802978515625
0.439	-0.0	-0.0	-0.0	-0.0	-0.0	-0.0	-0.2579297721385956	-2.926865577697754	-496.5097351074219	-0.0	-0.0	-0.0	-0.0	-0.0	-0.0	170788.453125	-40146.01953125	-2129.880615234375
0.4395	-0.0	-0.0	-0.0	-0.0	-0.0	-0.0	0.4677386581897735	-2.9346811771392822	-495.1604309082031	-0.0	-0.0	-0.0	-0.0	-0.0	-0.0	170703.65625	-40394.41015625	-1870.5950927734373
0.44	-0.0	-0.0	-0.0	-0.0	-0.0	-0.0	1.4273123741149902	-3.103116512298584	-495.7796630859375	-0.0	-0.0	-0.0	-0.0	-0.0	-0.0	170785.390625	-40629.453125	-1716.304931640625
0.4405	-0.0	-0.0	-0.0	-0.0	-0.0	-0.0	2.1212732791900635	-3.525116205215454	-497.11529541015625	-0.0	-0.0	-0.0	-0.0	-0.0	-0.0	171199.90625	-40717.33984375	-1536.7100830078125
0.441	-0.0	-0.0	-0.0	-0.0	-0.0	-0.0	1.9707506895065308	-3.624994993209839	-497.54107666015625	-0.0	-0.0	-0.0	-0.0	-0.0	-0.0	171220.015625	-41071.94921875	-1475.051513671875
0.4415	-0.0	-0.0	-0.0	-0.0	-0.0	-0.0	2.827458143234253	-3.3562240600585938	-498.26898193359375	-0.0	-0.0	-0.0	-0.0	-0.0	-0.0	171862.875	-41634.59765625	-1479.52734375
0.442	-0.0	-0.0	-0.0	-0.0	-0.0	-0.0	2.3285915851593018	-3.1832497119903564	-499.2868041992188	-0.0	-0.0	-0.0	-0.0	-0.0	-0.0	172376.515625	-41507.24609375	-1457.6195068359375
0.4425	-0.0	-0.0	-0.0	-0.0	-0.0	-0.0	1.8665512800216677	-3.084041118621826	-501.0040588378906	-0.0	-0.0	-0.0	-0.0	-0.0	-0.0	173159.015625	-42058.359375	-1635.8262939453125
0.443	-0.0	-0.0	-0.0	-0.0	-0.0	-0.0	1.6713131666183472	-2.5719258785247803	-503.1275024414063	-0.0	-0.0	-0.0	-0.0	-0.0	-0.0	173393.671875	-41901.1328125	-1839.8214111328125
0.4435	-0.0	-0.0	-0.0	-0.0	-0.0	-0.0	1.1671502590179443	-2.6565752029418945	-503.1411743164063	-0.0	-0.0	-0.0	-0.0	-0.0	-0.0	173606.890625	-41989.37109375	-1961.1597900390625
0.444	-0.0	-0.0	-0.0	-0.0	-0.0	-0.0	1.160074234008789	-2.211444139480591	-502.7783203125	-0.0	-0.0	-0.0	-0.0	-0.0	-0.0	173978.03125	-42495.359375	-2133.26220703125
0.4445	-0.0	-0.0	-0.0	-0.0	-0.0	-0.0	1.238611102104187	-2.914615631103516	-504.4846801757813	-0.0	-0.0	-0.0	-0.0	-0.0	-0.0	174272.125	-42430.47265625	-2047.7947998046875
0.445	-0.0	-0.0	-0.0	-0.0	-0.0	-0.0	1.264840006828308	-3.0029373168945312	-502.7783203125	-0.0	-0.0	-0.0	-0.0	-0.0	-0.0	174143.875	-42270.2265625	-1813.7432861328125
0.4455	-0.0	-0.0	-0.0	-0.0	-0.0	-0.0	1.7806347608566284	-3.797832489013672	-500.346923828125	-0.0	-0.0	-0.0	-0.0	-0.0	-0.0	173389.203125	-42240.17578125	-1775.2476806640625
0.446	-0.0	-0.0	-0.0	-0.0	-0.0	-0.0	2.23029899597168	-4.422321319580078	-497.9148559570313	-0.0	-0.0	-0.0	-0.0	-0.0	-0.0	172564.015625	-41920.96484375	-1481.691650390625
0.4465	-0.0	-0.0	-0.0	-0.0	-0.0	-0.0	3.104877471923828	-4.869926452636719	-494.7841491699219	-0.0	-0.0	-0.0	-0.0	-0.0	-0.0	171926.546875	-41588.65625	-1271.5008544921875
0.447	-0.0	-0.0	-0.0	-0.0	-0.0	-0.0	3.6311521530151367	-5.649606227874756	-494.4104614257813	-0.0	-0.0	-0.0	-0.0	-0.0	-0.0	171181.890625	-41264.80859375	-1067.759521484375
0.4475	-0.0	-0.0	-0.0	-0.0	-0.0	-0.0	3.565979242324829	-5.832143306732178	-492.6759643554688	-0.0	-0.0	-0.0	-0.0	-0.0	-0.0	171065.328125	-40985.71484375	-1183.5509033203125
0.448	-0.0	-0.0	-0.0	-0.0	-0.0	-0.0	3.1134698390960693	-5.926107406616211	-490.9409790039063	-0.0	-0.0	-0.0	-0.0	-0.0	-0.0	170928.703125	-41003.546875	-1040.405517578125
0.4485	-0.0	-0.0	-0.0	-0.0	-0.0	-0.0	2.8387451171875	-5.917552947998047	-492.3586120605469	-0.0	-0.0	-0.0	-0.0	-0.0	-0.0	170869.609375	-40622.1796875	-1250.033447265625
0.449	-0.0	-0.0	-0.0	-0.0	-0.0	-0.0	2.040348052978516	-5.119953155517578	-493.6789855957031	-0.0	-0.0	-0.0	-0.0	-0.0	-0.0	171356.609375	-40826.03125	-1602.615966796875
0.4495	-0.0	-0.0	-0.0	-0.0	-0.0	-0.0	0.9784748554229736	-5.10150146484375	-493.6585693359375	-0.0	-0.0	-0.0	-0.0	-0.0	-0.0	171487.546875	-40541.0625	-1871.2108154296875
0.45	-0.0	-0.0	-0.0	-0.0	-0.0	-0.0	0.5245275497436523	-4.504405975341797	-493.0528259277344	-0.0	-0.0	-0.0	-0.0	-0.0	-0.0	171714.28125	-40398.56640625	-2052.76416015625
0.4505	-0.0	-0.0	-0.0	-0.0	-0.0	-0.0	0.0025185476988554	-3.96444582939148	-494.06939697265625	-0.0	-0.0	-0.0	-0.0	-0.0	-0.0	171956.734375	-40252.50390625	-2433.45654296875
